<?xml version="1.0" encoding="iso-8859-1"?>
<!-- Generator: Adobe Illustrator 21.0.0, SVG Export Plug-In . SVG Version: 6.00 Build 0)  -->
<svg xmlns="http://www.w3.org/2000/svg" xmlns:xlink="http://www.w3.org/1999/xlink" version="1.1" id="Capa_1" x="0px" y="0px" viewBox="0 0 512 512" style="enable-background:new 0 0 512 512;" xml:space="preserve" width="512" height="512">
<g>
	<path style="fill:#C4AC8E;" d="M408.808,451.5H29.192c-11.98,0-21.692-9.712-21.692-21.692V184.192   c0-11.98,9.712-21.692,21.692-21.692h379.615c11.98,0,21.692,9.712,21.692,21.692v245.615   C430.5,441.788,420.788,451.5,408.808,451.5z"/>
	<path style="fill:#A69278;" d="M408.808,162.5h-30c11.98,0,21.692,9.712,21.692,21.692v245.615c0,11.98-9.712,21.692-21.692,21.692   h30c11.98,0,21.692-9.712,21.692-21.692V184.192C430.5,172.212,420.788,162.5,408.808,162.5z"/>
	<path style="fill:#B05A21;" d="M400.5,229.67v154.66c0,0.347-0.005,0.693-0.014,1.037c-0.114,4.157-4.747,6.464-8.19,4.131   c-3.265-2.212-7.317-3.348-11.648-2.904c-8.442,0.867-15.143,7.921-15.62,16.394c-0.216,3.837,0.807,7.425,2.706,10.401   c2.216,3.473-0.078,8.087-4.198,8.11c-0.069,0-0.137,0.001-0.206,0.001H74.67c-0.403,0-0.805-0.006-1.204-0.019   c-4.049-0.128-6.47-4.585-4.267-7.984c2.129-3.285,3.185-7.327,2.675-11.634c-0.928-7.833-7.191-14.182-15.012-15.208   c-4.216-0.553-8.19,0.401-11.46,2.398c-3.416,2.086-7.855-0.311-7.898-4.313c-0.001-0.136-0.002-0.273-0.002-0.41V229.67   c0-0.136,0.001-0.271,0.002-0.406c0.043-4.006,4.485-6.395,7.905-4.309c2.988,1.822,6.567,2.772,10.384,2.499   c8.622-0.618,15.622-7.68,16.172-16.307c0.251-3.937-0.801-7.615-2.767-10.648c-2.203-3.397,0.223-7.851,4.27-7.98   c0.4-0.013,0.801-0.019,1.204-0.019h288.66c0.069,0,0.138,0,0.206,0.001c4.12,0.022,6.414,4.637,4.198,8.11   c-1.899,2.976-2.922,6.563-2.706,10.401c0.477,8.473,7.178,15.527,15.62,16.394c4.33,0.445,8.383-0.691,11.648-2.904   c3.443-2.333,8.076-0.026,8.19,4.131C400.495,228.977,400.5,229.323,400.5,229.67z"/>
	<path style="fill:#FFD54F;" d="M255.281,358.453h-64c-7.18,0-13-5.82-13-13v-90h90v90   C268.281,352.633,262.461,358.453,255.281,358.453z"/>
	<path style="fill:#FFCA28;" d="M238.281,255.453v90c0,7.18-5.82,13-13,13h30c7.18,0,13-5.82,13-13v-90H238.281z"/>
	<path style="fill:#C4AC8E;" d="M504.5,112.5H69.25c-8.56,0-15.5-6.94-15.5-15.5v0c0-8.56,6.94-15.5,15.5-15.5H504.5V112.5z"/>
	<rect x="474.75" y="81.5" style="fill:#A69278;" width="29.75" height="31"/>
	<path style="fill:#857460;" d="M106.231,130.5L106.231,130.5c-8.56,0-15.5-6.94-15.5-15.5V76c0-8.56,6.94-15.5,15.5-15.5h0   c8.56,0,15.5,6.94,15.5,15.5v39C121.731,123.56,114.791,130.5,106.231,130.5z"/>
	<path style="fill:#857460;" d="M340.542,130.5L340.542,130.5c-8.56,0-15.5-6.94-15.5-15.5V76c0-8.56,6.94-15.5,15.5-15.5h0   c8.56,0,15.5,6.94,15.5,15.5v39C356.042,123.56,349.102,130.5,340.542,130.5z"/>
	<path d="M55.255,219.974c-2.111,0.154-4.169-0.341-5.942-1.422c-3.901-2.38-8.807-2.479-12.804-0.263   c-3.965,2.198-6.458,6.372-6.507,10.924L30,384.33l0.002,0.491c0.05,4.524,2.547,8.701,6.515,10.899   c3.999,2.214,8.899,2.112,12.792-0.267c1.963-1.198,4.238-1.671,6.578-1.362c4.422,0.58,8.014,4.219,8.538,8.653   c0.358,3.024-0.629,5.298-1.521,6.673c-2.473,3.816-2.699,8.691-0.59,12.722c2.131,4.072,6.313,6.691,10.913,6.837   c0.479,0.016,0.959,0.023,1.442,0.023H288c4.143,0,7.5-3.357,7.5-7.5s-3.357-7.5-7.5-7.5H77.411   c1.764-4.053,2.438-8.555,1.91-13.019c-1.342-11.331-10.177-20.28-21.485-21.763c-4.441-0.585-8.815-0.015-12.836,1.648V233.133   c3.555,1.463,7.405,2.082,11.327,1.802c12.39-0.888,22.33-10.909,23.122-23.313c0.257-4.043-0.44-7.996-2.029-11.622h282.162   c-1.564,3.571-2.266,7.46-2.042,11.433c0.684,12.122,10.288,22.195,22.341,23.433c4.52,0.462,9.058-0.303,13.119-2.178v148.625   c-4.061-1.875-8.6-2.638-13.117-2.178c-12.055,1.237-21.659,11.311-22.343,23.434c-0.224,3.972,0.478,7.86,2.042,11.432H320   c-4.143,0-7.5,3.357-7.5,7.5s3.357,7.5,7.5,7.5h43.33l0.245-0.001c4.571-0.024,8.769-2.532,10.955-6.546   c2.24-4.111,2.059-9.13-0.474-13.098c-1.127-1.767-1.659-3.822-1.54-5.944c0.272-4.841,4.098-8.862,8.899-9.354   c3.038-0.317,5.307,0.726,6.673,1.651c3.88,2.629,8.866,2.939,13.015,0.812c4.117-2.112,6.753-6.308,6.879-10.94   c0.012-0.415,0.018-0.831,0.018-1.249V229.67c0-0.418-0.006-0.834-0.018-1.241c-0.126-4.641-2.762-8.836-6.879-10.948   c-4.148-2.127-9.135-1.816-13.015,0.812c-1.367,0.926-3.633,1.967-6.675,1.651c-4.8-0.492-8.625-4.514-8.897-9.354   c-0.119-2.123,0.413-4.179,1.54-5.945c2.532-3.968,2.714-8.986,0.474-13.098c-2.187-4.014-6.384-6.521-10.887-6.545L74.67,185   c-0.483,0-0.964,0.008-1.441,0.023c-4.603,0.146-8.786,2.767-10.917,6.84c-2.107,4.03-1.881,8.902,0.592,12.716   c1.169,1.804,1.714,3.91,1.576,6.09C64.168,215.538,60.116,219.625,55.255,219.974z"/>
	<path d="M191.281,365.953h64c11.304,0,20.5-9.196,20.5-20.5v-90c0-4.143-3.357-7.5-7.5-7.5h-90c-4.143,0-7.5,3.357-7.5,7.5v12.854   H153.98c-10.88,0-19.73,8.851-19.73,19.73v26.231c0,10.88,8.851,19.73,19.73,19.73h16.801v11.453   C170.781,356.757,179.978,365.953,191.281,365.953z M185.781,262.953h75v82.5c0,3.033-2.467,5.5-5.5,5.5h-64   c-3.033,0-5.5-2.467-5.5-5.5V262.953z M153.98,319c-2.608,0-4.73-2.122-4.73-4.73v-26.231c0-2.608,2.122-4.73,4.73-4.73h16.801V319   H153.98z"/>
	<path d="M504.5,74H480c-4.143,0-7.5,3.357-7.5,7.5s3.357,7.5,7.5,7.5h17v16H363.542V89H447.5c4.143,0,7.5-3.357,7.5-7.5   s-3.357-7.5-7.5-7.5h-84.044c-1.017-11.75-10.905-21-22.914-21s-21.897,9.25-22.914,21H129.144c-1.017-11.75-10.905-21-22.914-21   s-21.897,9.25-22.914,21H69.25c-6.128,0-11.9,2.39-16.254,6.728C48.646,85.063,46.25,90.842,46.25,97c0,12.683,10.317,23,23,23   h14.528c2.289,10.287,11.486,18,22.452,18s20.163-7.713,22.452-18h2.567v35H29.192C13.096,155,0,168.096,0,184.192v71.261   c0,4.143,3.357,7.5,7.5,7.5s7.5-3.357,7.5-7.5v-71.261C15,176.366,21.366,170,29.192,170h379.615   c7.826,0,14.192,6.366,14.192,14.192v245.615c0,7.826-6.366,14.192-14.192,14.192H29.192C21.366,444,15,437.634,15,429.808V287.667   c0-4.143-3.357-7.5-7.5-7.5s-7.5,3.357-7.5,7.5v142.141C0,445.904,13.096,459,29.192,459h379.615   C424.904,459,438,445.904,438,429.808V184.192C438,168.096,424.904,155,408.808,155H315.75v-35h2.34   c2.289,10.287,11.486,18,22.452,18s20.163-7.713,22.452-18H504.5c4.143,0,7.5-3.357,7.5-7.5v-31C512,77.357,508.643,74,504.5,74z    M129.23,105V89h188.312v16H129.23z M61.25,97c0-2.142,0.829-4.147,2.334-5.647C65.106,89.836,67.118,89,69.25,89h13.98v16H69.25   C64.839,105,61.25,101.411,61.25,97z M114.23,115c0,4.411-3.589,8-8,8s-8-3.589-8-8V76c0-4.411,3.589-8,8-8s8,3.589,8,8V115z    M300.75,155h-154.5v-35h154.5V155z M340.542,123c-4.411,0-8-3.589-8-8V76c0-4.411,3.589-8,8-8s8,3.589,8,8v5.345   c-0.001,0.051-0.002,0.103-0.002,0.155s0.001,0.104,0.002,0.155v30.69c-0.001,0.051-0.002,0.103-0.002,0.155   s0.001,0.104,0.002,0.155V115C348.542,119.411,344.953,123,340.542,123z"/>
</g>















</svg>
